REM DIRINDEX 1\2,1\3,1\4,1\5\6,1\5\7,1\8
REM DIRNAME cjc115,folder01,folder02,folder03,folder04,folder05,folder06,folder07
TITLE ""
FILE "138 【138】Unit8 (1561 deserve_1572 faith).mp3" MP3
  TRACK 01 AUDIO
    TITLE "0:"
    INDEX 01 00:00:00
  TRACK 02 AUDIO
    TITLE "2:cjc115_5396"
    INDEX 01 00:00:01
  TRACK 03 AUDIO
    TITLE "0:"
    INDEX 01 00:01:17
  TRACK 04 AUDIO
    TITLE "3:cjc115_5397"
    INDEX 01 00:01:21
  TRACK 05 AUDIO
    TITLE "0:"
    INDEX 01 00:02:59
  TRACK 06 AUDIO
    TITLE "4:cjc115_5398"
    INDEX 01 00:02:61
  TRACK 07 AUDIO
    TITLE "0:"
    INDEX 01 00:07:27
  TRACK 08 AUDIO
    TITLE "2:cjc115_5399"
    INDEX 01 00:08:34
  TRACK 09 AUDIO
    TITLE "0:"
    INDEX 01 00:09:67
  TRACK 10 AUDIO
    TITLE "3:cjc115_5400"
    INDEX 01 00:10:04
  TRACK 11 AUDIO
    TITLE "0:"
    INDEX 01 00:11:17
  TRACK 12 AUDIO
    TITLE "4:cjc115_5401"
    INDEX 01 00:11:25
  TRACK 13 AUDIO
    TITLE "0:"
    INDEX 01 00:14:51
  TRACK 14 AUDIO
    TITLE "2:cjc115_5402"
    INDEX 01 00:15:60
  TRACK 15 AUDIO
    TITLE "0:"
    INDEX 01 00:17:12
  TRACK 16 AUDIO
    TITLE "3:cjc115_5403"
    INDEX 01 00:17:20
  TRACK 17 AUDIO
    TITLE "0:"
    INDEX 01 00:19:54
  TRACK 18 AUDIO
    TITLE "4:cjc115_5404"
    INDEX 01 00:19:63
  TRACK 19 AUDIO
    TITLE "0:"
    INDEX 01 00:24:06
  TRACK 20 AUDIO
    TITLE "2:cjc115_5405"
    INDEX 01 00:25:15
  TRACK 21 AUDIO
    TITLE "0:"
    INDEX 01 00:26:54
  TRACK 22 AUDIO
    TITLE "3:cjc115_5406"
    INDEX 01 00:26:66
  TRACK 23 AUDIO
    TITLE "0:"
    INDEX 01 00:28:70
  TRACK 24 AUDIO
    TITLE "4:cjc115_5407"
    INDEX 01 00:29:03
  TRACK 25 AUDIO
    TITLE "0:"
    INDEX 01 00:33:50
  TRACK 26 AUDIO
    TITLE "2:cjc115_5408"
    INDEX 01 00:34:61
  TRACK 27 AUDIO
    TITLE "0:"
    INDEX 01 00:36:05
  TRACK 28 AUDIO
    TITLE "3:cjc115_5409"
    INDEX 01 00:36:09
  TRACK 29 AUDIO
    TITLE "0:"
    INDEX 01 00:37:26
  TRACK 30 AUDIO
    TITLE "4:cjc115_5410"
    INDEX 01 00:37:36
  TRACK 31 AUDIO
    TITLE "0:"
    INDEX 01 00:42:35
  TRACK 32 AUDIO
    TITLE "2:cjc115_5411"
    INDEX 01 00:43:46
  TRACK 33 AUDIO
    TITLE "0:"
    INDEX 01 00:44:42
  TRACK 34 AUDIO
    TITLE "3:cjc115_5412"
    INDEX 01 00:44:50
  TRACK 35 AUDIO
    TITLE "0:"
    INDEX 01 00:45:53
  TRACK 36 AUDIO
    TITLE "4:cjc115_5413"
    INDEX 01 00:45:63
  TRACK 37 AUDIO
    TITLE "0:"
    INDEX 01 00:48:57
  TRACK 38 AUDIO
    TITLE "2:cjc115_5414"
    INDEX 01 00:49:69
  TRACK 39 AUDIO
    TITLE "0:"
    INDEX 01 00:51:09
  TRACK 40 AUDIO
    TITLE "3:cjc115_5415"
    INDEX 01 00:51:18
  TRACK 41 AUDIO
    TITLE "0:"
    INDEX 01 00:52:30
  TRACK 42 AUDIO
    TITLE "4:cjc115_5416"
    INDEX 01 00:52:43
  TRACK 43 AUDIO
    TITLE "0:"
    INDEX 01 00:55:38
  TRACK 44 AUDIO
    TITLE "2:cjc115_5417"
    INDEX 01 00:56:49
  TRACK 45 AUDIO
    TITLE "0:"
    INDEX 01 00:57:66
  TRACK 46 AUDIO
    TITLE "3:cjc115_5418"
    INDEX 01 00:57:72
  TRACK 47 AUDIO
    TITLE "0:"
    INDEX 01 01:00:23
  TRACK 48 AUDIO
    TITLE "4:cjc115_5419"
    INDEX 01 01:00:33
  TRACK 49 AUDIO
    TITLE "0:"
    INDEX 01 01:05:05
  TRACK 50 AUDIO
    TITLE "2:cjc115_5420"
    INDEX 01 01:06:16
  TRACK 51 AUDIO
    TITLE "0:"
    INDEX 01 01:07:27
  TRACK 52 AUDIO
    TITLE "3:cjc115_5421"
    INDEX 01 01:07:35
  TRACK 53 AUDIO
    TITLE "0:"
    INDEX 01 01:09:48
  TRACK 54 AUDIO
    TITLE "4:cjc115_5422"
    INDEX 01 01:09:59
  TRACK 55 AUDIO
    TITLE "0:"
    INDEX 01 01:15:09
  TRACK 56 AUDIO
    TITLE "2:cjc115_5423"
    INDEX 01 01:16:14
  TRACK 57 AUDIO
    TITLE "0:"
    INDEX 01 01:17:24
  TRACK 58 AUDIO
    TITLE "3:cjc115_5424"
    INDEX 01 01:17:35
  TRACK 59 AUDIO
    TITLE "0:"
    INDEX 01 01:19:54
  TRACK 60 AUDIO
    TITLE "4:cjc115_5425"
    INDEX 01 01:19:64
  TRACK 61 AUDIO
    TITLE "0:"
    INDEX 01 01:24:26
  TRACK 62 AUDIO
    TITLE "2:cjc115_5426"
    INDEX 01 01:25:39
  TRACK 63 AUDIO
    TITLE "0:"
    INDEX 01 01:26:44
  TRACK 64 AUDIO
    TITLE "3:cjc115_5427"
    INDEX 01 01:26:52
  TRACK 65 AUDIO
    TITLE "0:"
    INDEX 01 01:28:18
  TRACK 66 AUDIO
    TITLE "4:cjc115_5428"
    INDEX 01 01:28:25
  TRACK 67 AUDIO
    TITLE "0:"
    INDEX 01 01:32:15
  TRACK 68 AUDIO
    TITLE "2:cjc115_5429"
    INDEX 01 01:33:17
  TRACK 69 AUDIO
    TITLE "0:"
    INDEX 01 01:34:24
  TRACK 70 AUDIO
    TITLE "3:cjc115_5430"
    INDEX 01 01:34:26
  TRACK 71 AUDIO
    TITLE "0:"
    INDEX 01 01:36:60
  TRACK 72 AUDIO
    TITLE "4:cjc115_5431"
    INDEX 01 01:36:70
  TRACK 73 AUDIO
    TITLE "0:"
    INDEX 01 01:40:09
